<svg xmlns="http://www.w3.org/2000/svg" xmlns:xlink="http://www.w3.org/1999/xlink" viewBox="0 0 109 21.23"><defs><style>.cls-1{fill:#fff;}.cls-1,.cls-2{fill-rule:evenodd;}.cls-2{fill:url(#Безымянный_градиент_2);}</style><linearGradient id="Безымянный_градиент_2" x1="0.93" y1="1.49" x2="22.22" y2="23.62" gradientTransform="matrix(1, 0, 0, -1, 0, 24)" gradientUnits="userSpaceOnUse"><stop offset="0" stop-color="#964bff"/><stop offset="0.37" stop-color="#a695ff"/><stop offset="0.65" stop-color="#3ce9ff"/><stop offset="0.86" stop-color="#caff2c"/><stop offset="1" stop-color="#ffff21"/></linearGradient></defs><path class="cls-1" d="M102.65,16.27V5.74h6V7H104v3.13h4.11v1.23H104V15h5v1.26Zm-7.94-1.46c-.09-.24-.21-.55-.37-.92s-.33-.78-.5-1.22-.38-.88-.58-1.34L92.69,10c-.18-.41-.35-.78-.51-1.1s-.28-.57-.37-.75c-.1,1.2-.19,2.49-.26,3.89s-.12,2.79-.17,4.21H90c0-.91.08-1.83.13-2.76s.1-1.83.16-2.73.13-1.77.2-2.62.15-1.66.23-2.42H92c.26.45.53,1,.83,1.58s.58,1.25.88,1.91.57,1.33.85,2L95.27,13c.22-.55.47-1.16.75-1.82s.56-1.33.85-2,.59-1.3.88-1.91.56-1.13.82-1.58h1.2q.49,5.1.73,10.53H99.15c-.05-1.42-.1-2.82-.17-4.21s-.15-2.69-.26-3.89l-.37.75c-.16.32-.32.69-.5,1.1s-.37.85-.58,1.31-.39.91-.57,1.34-.35.84-.5,1.22-.29.68-.38.92Zm-8.53-2.44c-.3-.88-.6-1.74-.9-2.56s-.6-1.62-.93-2.38c-.33.76-.64,1.55-.94,2.38s-.59,1.68-.88,2.56Zm1.29,3.9c-.16-.45-.31-.9-.45-1.34s-.29-.89-.44-1.35H82.13l-.89,2.69H79.8c.38-1.11.74-2.14,1.07-3.09s.65-1.85,1-2.7.63-1.66.94-2.44.64-1.54,1-2.3H85c.34.76.67,1.53,1,2.3s.62,1.59.94,2.44.64,1.75,1,2.7.69,2,1.06,3.09ZM74.32,6.93c-.59,0-1,0-1.35,0v4h1a9.86,9.86,0,0,0,1.28-.08,2.53,2.53,0,0,0,1-.29,1.53,1.53,0,0,0,.61-.6A2.12,2.12,0,0,0,77,9a2.07,2.07,0,0,0-.21-1,1.73,1.73,0,0,0-.58-.62A2.39,2.39,0,0,0,75.36,7a5.67,5.67,0,0,0-1-.09Zm2.08,4.94c.15.2.35.46.58.79s.47.7.71,1.1.49.82.73,1.25.45.86.62,1.26h-1.5c-.19-.38-.4-.77-.62-1.17s-.45-.77-.67-1.13-.45-.7-.68-1-.42-.59-.6-.82H73v4.12H71.6V5.9a6.93,6.93,0,0,1,1.3-.21c.47,0,.91-.05,1.31-.05a5.12,5.12,0,0,1,3.15.83A3,3,0,0,1,78.44,9a3.12,3.12,0,0,1-.51,1.8,3.18,3.18,0,0,1-1.53,1.11ZM64,16.27V5.74h5.92V7H65.36v3.18h4v1.25h-4v4.84ZM62.54,15v1.27H56.63V5.74H58V15Zm-7.35,0v1.27H49.28V5.74h1.37V15Zm-14,1.27V5.74h6V7H42.56v3.13h4.11v1.23H42.56V15h5v1.26Zm-4.56.23a4.74,4.74,0,0,1-1.88-.36,4,4,0,0,1-1.46-1.07,4.92,4.92,0,0,1-1-1.72A7.71,7.71,0,0,1,32,11a6.85,6.85,0,0,1,.38-2.35,5,5,0,0,1,1-1.72,4.26,4.26,0,0,1,1.49-1.07,4.57,4.57,0,0,1,1.81-.36,6.12,6.12,0,0,1,1.1.09,6.21,6.21,0,0,1,.85.21,3.87,3.87,0,0,1,.59.25l.31.18-.4,1.21a1.91,1.91,0,0,0-.36-.19L38.23,7a5.45,5.45,0,0,0-.67-.17,3.54,3.54,0,0,0-.73-.07,3.34,3.34,0,0,0-1.4.29,2.79,2.79,0,0,0-1.06.84,3.71,3.71,0,0,0-.68,1.33A6.29,6.29,0,0,0,33.46,11a6.59,6.59,0,0,0,.21,1.72,3.87,3.87,0,0,0,.61,1.33,2.82,2.82,0,0,0,1,.85,3.12,3.12,0,0,0,1.44.31A5,5,0,0,0,38.32,15a8,8,0,0,0,.94-.38l.35,1.21a1.46,1.46,0,0,1-.35.19,4.28,4.28,0,0,1-.64.22,7.73,7.73,0,0,1-.89.18A7.62,7.62,0,0,1,36.62,16.5Z" transform="translate(0 -0.38)"/><path class="cls-2" d="M5.74,2.36h0a1,1,0,0,1-1-1,1,1,0,0,1,0-.17,1,1,0,0,1,1-.82h0a1,1,0,0,1,1,1,.88.88,0,0,1,0,.24,1,1,0,0,1-1,.75Zm8.11-.59a1,1,0,1,1,1,1A1,1,0,0,1,13.85,1.77Zm3.69.53v0a.86.86,0,0,1,1.71,0,.85.85,0,0,1-.85.85A.85.85,0,0,1,17.54,2.3Zm-6,1.12h0a1.13,1.13,0,0,1-1.11-1,.86.86,0,0,1,0-.16,1.12,1.12,0,0,1,1.12-1.12h0a1.11,1.11,0,0,1,1.07.8,1.11,1.11,0,0,1-1.07,1.44ZM21.3,5h0a.73.73,0,0,1-.72-.59s0-.09,0-.14a.73.73,0,0,1,.73-.72h0a.73.73,0,0,1,.71.58.66.66,0,0,1,0,.14A.72.72,0,0,1,21.3,5ZM3.56,5.13a1.16,1.16,0,1,1,.07,0Zm4.68.13h0A1.25,1.25,0,0,1,7,4a1.79,1.79,0,0,1,0-.23,1.26,1.26,0,0,1,1.23-1h0a1.25,1.25,0,0,1,0,2.5ZM22.81,7a.6.6,0,1,1,.6.6A.6.6,0,0,1,22.81,7ZM10.56,8.3a1.13,1.13,0,1,1,.11,0h-.11Zm-8.38.13h0a1.26,1.26,0,1,1,0-2.51h0a1.26,1.26,0,0,1,0,2.51ZM5,7A1.39,1.39,0,1,1,6.4,8.43,1.38,1.38,0,0,1,5,7Zm6.86,3.56A1.12,1.12,0,1,1,13,11.73,1.12,1.12,0,0,1,11.87,10.6Zm-3.69.05V10.6a1.25,1.25,0,0,1,2.5,0v.05a1.26,1.26,0,0,1-1.25,1.21A1.25,1.25,0,0,1,8.18,10.65ZM0,10.74a1.39,1.39,0,1,1,1.38,1.38A1.38,1.38,0,0,1,0,10.74Zm4,0a1.52,1.52,0,1,1,1.51,1.51A1.52,1.52,0,0,1,4,10.74Zm6.34,4.37A1.14,1.14,0,0,1,9.49,14h0a1.13,1.13,0,0,1,1-1.11h.33a1.13,1.13,0,0,1,1,1.11h0a1.13,1.13,0,0,1-.81,1.08,1.1,1.1,0,0,1-.31,0A1.12,1.12,0,0,1,10.3,15.11Zm-8.12.44h0a1.26,1.26,0,1,1,0-2.51h0a1.26,1.26,0,0,1,0,2.51Zm20.63-.46a.6.6,0,1,1,1.19,0,.6.6,0,0,1-1.19,0ZM5,14.43A1.39,1.39,0,1,1,6.4,15.81,1.39,1.39,0,0,1,5,14.43ZM21.3,18.58h0a.73.73,0,0,1-.72-.59s0-.09,0-.13a.73.73,0,0,1,.73-.73h0a.73.73,0,0,1,.71.58.76.76,0,0,1,0,.15.72.72,0,0,1-.72.72Zm-17.74.13a1.16,1.16,0,1,1,.07,0Zm4.68.4h0A1.25,1.25,0,0,1,7,17.86a1.64,1.64,0,0,1,0-.23,1.26,1.26,0,0,1,1.23-1h0a1.26,1.26,0,0,1,0,2.51Zm9.3.59v0a.86.86,0,1,1,.89.9h0a.85.85,0,0,1-.86-.86Zm-6,1.26h0a1.13,1.13,0,0,1-1.11-1,.86.86,0,0,1,0-.16,1.13,1.13,0,0,1,1.12-1.13h0a1.13,1.13,0,0,1,0,2.25Zm2.31-.6a1,1,0,1,1,1,1A1,1,0,0,1,13.85,20.36ZM5.74,21.62h0a1,1,0,0,1-1-1,.91.91,0,0,1,0-.17,1,1,0,0,1,1-.82h0a1,1,0,0,1,0,2Z" transform="translate(0 -0.38)"/></svg>