<svg width="24" height="24" viewBox="0 0 24 24" fill="none" xmlns="http://www.w3.org/2000/svg">
<path fill-rule="evenodd" clip-rule="evenodd" d="M8.38736 10.2006L7.01383 9.40993C6.63879 9.83292 6.00506 9.94898 5.49568 9.65577C4.91417 9.32105 4.71492 8.57973 5.05066 7.99999C5.3864 7.42025 6.12995 7.22162 6.71146 7.55633C7.22085 7.84954 7.43688 8.45474 7.25699 8.99004L8.63052 9.78066L11.7566 7.98124V6.39999C11.2017 6.28768 10.784 5.79853 10.784 5.21212C10.784 4.54269 11.3283 4 11.9998 4C12.6713 4 13.2156 4.54269 13.2156 5.21212C13.2156 5.79854 12.7979 6.28769 12.2429 6.39999V7.98124L15.3691 9.78066L16.7426 8.99004C16.5627 8.45473 16.7787 7.84954 17.2881 7.55633C17.8696 7.22162 18.6132 7.42025 18.9489 7.99999C19.2847 8.57974 19.0854 9.32106 18.5039 9.65577C17.9945 9.94898 17.3608 9.83292 16.9858 9.40993L15.6122 10.2006V13.7994L16.9858 14.59C17.3608 14.167 17.9945 14.051 18.5039 14.3442C19.0854 14.6789 19.2847 15.4202 18.9489 16C18.6132 16.5797 17.8696 16.7784 17.2881 16.4436C16.7787 16.1504 16.5627 15.5452 16.7426 15.0099L15.3691 14.2193L12.2429 16.0187V17.6C12.7979 17.7123 13.2156 18.2014 13.2156 18.7878C13.2156 19.4573 12.6713 20 11.9998 20C11.3283 20 10.784 19.4573 10.784 18.7878C10.784 18.2014 11.2017 17.7123 11.7566 17.6V16.0187L8.63052 14.2193L7.25699 15.0099C7.43688 15.5452 7.22085 16.1504 6.71146 16.4436C6.12995 16.7784 5.38641 16.5797 5.05066 16C4.71492 15.4202 4.91417 14.6789 5.49568 14.3442C6.00507 14.051 6.63879 14.167 7.01383 14.59L8.38736 13.7994V10.2006Z" fill="white"/>
</svg>
