<svg width="24" height="24" viewBox="0 0 24 24" fill="none" xmlns="http://www.w3.org/2000/svg">
<path fill-rule="evenodd" clip-rule="evenodd" d="M15.0974 4.12379V7.35969H18.327L15.0974 4.12379Z" fill="white"/>
<path fill-rule="evenodd" clip-rule="evenodd" d="M11.434 11.9258C10.851 11.9258 10.6442 12.522 10.6442 13.0324C10.6442 13.5467 10.8898 14.1001 11.4291 14.1001C11.9747 14.1001 12.219 13.5468 12.219 12.9983C12.2189 12.4818 11.9733 11.9258 11.434 11.9258Z" fill="white"/>
<path fill-rule="evenodd" clip-rule="evenodd" d="M16.7356 14.6927C16.3295 14.8492 15.9017 14.9507 15.4643 14.9507C14.8728 14.9507 14.4118 14.785 14.0548 14.4442C13.712 14.1132 13.5154 13.5981 13.5154 13.0309C13.5212 11.8594 14.3416 11.0723 15.5569 11.0723C15.952 11.0723 16.3426 11.1583 16.6904 11.3462L16.4402 12.1922C16.1608 12.0476 15.8652 11.9522 15.5472 11.9522C14.8839 11.9522 14.4879 12.3482 14.4879 13.0115C14.4879 13.6778 14.8639 14.0756 15.4936 14.0756C15.6341 14.0756 15.734 14.0647 15.7972 14.0543V13.5319H15.1292V12.6666H16.7356L16.7356 14.6927ZM11.4075 14.9702C10.3834 14.9702 9.66815 14.1767 9.66815 13.0408C9.66815 11.8703 10.4034 11.0528 11.4562 11.0528C12.4803 11.0528 13.1955 11.8442 13.1955 12.9774C13.1955 14.354 12.2975 14.9702 11.4075 14.9702V14.9702ZM9.61662 14.9166H7.2643V11.1064H8.21246V14.0367H9.61666V14.9166H9.61662ZM18.4367 8.64217H15.0973C14.3863 8.64217 13.8099 8.06582 13.8099 7.35481V4H6.11757C5.81135 4 5.56311 4.24824 5.56311 4.55445V19.4455C5.56311 19.7518 5.81135 20 6.11757 20H17.8824C18.1886 20 18.4368 19.752 18.4369 19.4457C18.4371 17.1673 18.4367 8.64218 18.4367 8.64218V8.64217Z" fill="white"/>
</svg>
