<svg width="24" height="24" viewBox="0 0 24 24" fill="none" xmlns="http://www.w3.org/2000/svg">
<path fill-rule="evenodd" clip-rule="evenodd" d="M12.0003 15.5941C10.0155 15.5941 8.40641 13.985 8.40641 12.0002C8.40641 10.0153 10.0155 8.40629 12.0003 8.40629C13.9852 8.40629 15.5942 10.0153 15.5942 12.0002C15.592 13.9841 13.9842 15.5918 12.0003 15.5941ZM19.6965 10.5908C19.501 10.3867 19.2339 10.2665 18.9515 10.2554L17.8299 10.2092C17.7168 9.84172 17.5688 9.48593 17.388 9.14663L18.1493 8.31941C18.548 7.88818 18.5342 7.21877 18.118 6.80435L17.1971 5.88275C16.7826 5.46656 16.1132 5.45275 15.682 5.8515L14.8523 6.61465C14.5133 6.43563 14.1582 6.28914 13.7916 6.17713L13.7451 5.05021C13.7217 4.46315 13.2388 3.99939 12.6513 3.99986H11.3493C10.7623 3.99937 10.2795 4.4624 10.2556 5.04896L10.209 6.17588C9.84241 6.28789 9.48727 6.43438 9.14832 6.6134L8.3186 5.85118C7.887 5.45341 7.21838 5.4672 6.80354 5.88243L5.88288 6.8034C5.46669 7.21782 5.45288 7.88722 5.85163 8.31846L6.6126 9.14568C6.4318 9.48498 6.28383 9.84077 6.17071 10.2082L5.0491 10.2545C4.46217 10.2785 3.999 10.7618 4 11.3492V12.6511C3.99951 13.2382 4.46254 13.7209 5.0491 13.7449L6.16571 13.7912C6.2785 14.1609 6.42637 14.519 6.60729 14.8606L5.85132 15.6819C5.45355 16.1135 5.46734 16.7821 5.88257 17.1969L6.80323 18.1176C7.21806 18.5328 7.88668 18.5466 8.31829 18.1488L9.13707 17.3951C9.47934 17.5774 9.83842 17.7264 10.2093 17.8398L10.2552 18.951C10.2792 19.5376 10.762 20.0006 11.349 20.0001H12.651C13.238 20.0006 13.7208 19.5376 13.7447 18.951L13.7907 17.8398C14.1616 17.7264 14.5206 17.5774 14.8629 17.395L15.6817 18.1488C16.1129 18.5476 16.7823 18.5338 17.1968 18.1176L18.1174 17.1969C18.5326 16.7821 18.5464 16.1135 18.1487 15.6819L17.3927 14.8606C17.5736 14.519 17.7215 14.1609 17.8343 13.7912L18.9509 13.7449C19.5375 13.7209 20.0005 13.2382 20 12.6511V11.3492C20.0008 11.0666 19.892 10.7948 19.6965 10.5907V10.5908Z" fill="white"/>
</svg>
