<svg width="24" height="24" viewBox="0 0 24 24" fill="none" xmlns="http://www.w3.org/2000/svg">
<path fill-rule="evenodd" clip-rule="evenodd" d="M18.9041 8.12054H5.09589V6.84931C5.09589 6.19178 5.64384 5.64383 6.30137 5.64383H17.6986C18.3562 5.64383 18.9041 6.19178 18.9041 6.84931V8.12054ZM16.1644 16.7123H11.4959C11.189 16.7123 10.9479 16.4712 10.9479 16.1644C10.9479 15.8575 11.189 15.6164 11.4959 15.6164H16.1644C16.4712 15.6164 16.7123 15.8575 16.7123 16.1644C16.7123 16.4712 16.4712 16.7123 16.1644 16.7123ZM10.5315 13.9726L8.12055 16.1644C7.90137 16.3616 7.55069 16.3397 7.35343 16.0986C7.15617 15.8795 7.17809 15.5507 7.39727 15.3534L9.36987 13.5562L7.39727 11.7589C7.17809 11.5397 7.17809 11.211 7.37535 10.9918C7.57261 10.7726 7.90138 10.7726 8.12055 10.9479L10.5315 13.1397C10.7507 13.337 10.7726 13.6877 10.5754 13.9068C10.5534 13.9288 10.5534 13.9507 10.5315 13.9726ZM17.6986 4.54794H6.30137C5.03014 4.54794 4 5.57808 4 6.84931V17.1507C4 18.4219 5.03014 19.4521 6.30137 19.4521H17.6986C18.9699 19.4521 20 18.4219 20 17.1507V6.84931C20 5.57808 18.9699 4.54794 17.6986 4.54794Z" fill="white"/>
</svg>
