<svg width="24" height="24" viewBox="0 0 24 24" fill="none" xmlns="http://www.w3.org/2000/svg">
<path d="M4.88892 7.50111C4.88892 6.05842 6.05845 4.88889 7.50114 4.88889C8.94383 4.88889 10.1134 6.05842 10.1134 7.50111C10.1134 8.9438 8.94383 10.1133 7.50114 10.1133C6.05845 10.1133 4.88892 8.9438 4.88892 7.50111Z" fill="white" stroke="white"/>
<path d="M13.8889 7.50111C13.8889 6.05842 15.0584 4.88889 16.5011 4.88889C17.9438 4.88889 19.1134 6.05842 19.1134 7.50111C19.1134 8.9438 17.9438 10.1133 16.5011 10.1133C15.0584 10.1133 13.8889 8.9438 13.8889 7.50111Z" fill="white" stroke="white"/>
<path d="M4.88892 16.5011C4.88892 15.0584 6.05845 13.8889 7.50114 13.8889C8.94383 13.8889 10.1134 15.0584 10.1134 16.5011C10.1134 17.9438 8.94383 19.1133 7.50114 19.1133C6.05845 19.1133 4.88892 17.9438 4.88892 16.5011Z" fill="white" stroke="white"/>
<path d="M13.8889 16.5011C13.8889 15.0584 15.0584 13.8889 16.5011 13.8889C17.9438 13.8889 19.1134 15.0584 19.1134 16.5011C19.1134 17.9438 17.9438 19.1133 16.5011 19.1133C15.0584 19.1133 13.8889 17.9438 13.8889 16.5011Z" fill="white" stroke="white"/>
<path d="M9.88892 7.88889H14.3378" stroke="white"/>
<path d="M9.88892 16.8889H14.3378" stroke="white"/>
<path d="M7.88892 9.88889V14.3378" stroke="white"/>
<path d="M16.8889 9.88889V14.3378" stroke="white"/>
</svg>
