<svg width="24" height="24" viewBox="0 0 24 24" fill="none" xmlns="http://www.w3.org/2000/svg">
<path fill-rule="evenodd" clip-rule="evenodd" d="M11.9962 14.2543C12.5461 14.2543 12.996 13.8044 12.996 13.2545C12.996 12.7046 12.5461 12.2547 11.9962 12.2547C11.4429 12.2547 10.9963 12.7046 10.9963 13.2545C10.9963 13.8044 11.4429 14.2543 11.9962 14.2543Z" fill="white"/>
<path fill-rule="evenodd" clip-rule="evenodd" d="M14.9981 9.25744H8.99866C8.81459 9.25744 8.66536 9.10836 8.66536 8.92414C8.66536 8.73991 8.8146 8.59084 8.99866 8.59084H14.9981C15.1822 8.59084 15.3315 8.73992 15.3315 8.92414C15.3315 9.10837 15.1822 9.25744 14.9981 9.25744ZM9.78017 11.4007C9.7735 11.304 9.80684 11.2074 9.87682 11.1374C9.94682 11.0674 10.0435 11.0274 10.1435 11.0407L11.1167 11.1274L11.7433 10.3774C11.8067 10.3008 11.9 10.2575 12 10.2575C12.0966 10.2575 12.19 10.3008 12.2533 10.3774L12.8799 11.1274L13.8531 11.0407C13.9531 11.0308 14.0498 11.0674 14.1198 11.1374C14.1898 11.2074 14.2264 11.304 14.2164 11.4007L14.1264 12.3739L14.8797 13.0006C14.953 13.0639 14.9997 13.1572 14.9997 13.2572C14.9997 13.3572 14.953 13.4505 14.8797 13.5138L14.1264 14.1405L14.2164 15.1137C14.2231 15.2103 14.1898 15.307 14.1198 15.377C14.0498 15.447 13.9531 15.4837 13.8531 15.4737L12.8799 15.387L12.2533 16.1369C12.1899 16.2136 12.0966 16.257 12 16.257C11.9 16.257 11.8067 16.2136 11.7433 16.1369L11.1167 15.387L10.1435 15.4737C10.0468 15.4837 9.94682 15.447 9.87682 15.377C9.80684 15.307 9.7735 15.2103 9.78017 15.1137L9.87017 14.1405L9.12023 13.5138C9.04356 13.4505 9.00023 13.3572 9.00023 13.2572C9.00023 13.1572 9.04356 13.0639 9.12023 13.0006L9.87017 12.3739L9.78017 11.4007ZM14.9981 17.9234H8.99866C8.81459 17.9234 8.66536 17.7743 8.66536 17.59C8.66536 17.4058 8.8146 17.2567 8.99866 17.2567H14.9981C15.1822 17.2567 15.3315 17.4058 15.3315 17.59C15.3315 17.7743 15.1822 17.9234 14.9981 17.9234ZM8.99866 6.47838H10.9985C11.1826 6.47838 11.3318 6.62746 11.3318 6.81168C11.3318 6.99591 11.1826 7.14498 10.9985 7.14498H8.99866C8.81459 7.14498 8.66536 6.9959 8.66536 6.81168C8.66536 6.62745 8.8146 6.47838 8.99866 6.47838ZM17.3329 7.81095H14.8465C14.2951 7.81095 13.8466 7.36242 13.8466 6.81104V4.33469C13.8466 4.21873 13.8687 4.10693 13.9061 4.00139H7.33371C6.78043 4.00139 6.3338 4.44801 6.3338 5.0013V19.0001C6.3338 19.55 6.78044 20 7.33371 20H16.6662C17.2162 20 17.6662 19.55 17.6662 19.0001V7.75106C17.5607 7.78873 17.449 7.81095 17.3329 7.81095H17.3329Z" fill="white"/>
<path fill-rule="evenodd" clip-rule="evenodd" d="M14.8458 7.14885H17.3331C17.4665 7.14885 17.5865 7.06874 17.6399 6.94191C17.6899 6.81841 17.6632 6.67491 17.5665 6.58145C16.943 5.95396 15.8094 4.82246 15.0826 4.09815C14.9859 4.00138 14.8425 3.97465 14.7192 4.02472C14.5958 4.07814 14.5124 4.19829 14.5124 4.33515V6.81507C14.5124 6.99866 14.6625 7.14884 14.8459 7.14884L14.8458 7.14885Z" fill="white"/>
</svg>
