<svg width="24" height="24" viewBox="0 0 24 24" fill="none" xmlns="http://www.w3.org/2000/svg">
<path fill-rule="evenodd" clip-rule="evenodd" d="M15.8 12.6C16.1314 12.6 16.4 12.8685 16.4 13.1999C16.4 13.5314 16.1314 13.8 15.8 13.8C15.4686 13.8 15.2 13.5314 15.2 13.1999C15.2 12.8685 15.4686 12.6 15.8 12.6ZM13.8 11.3999C13.6823 11.3999 13.6 11.4822 13.6 11.6V14.8C13.6 14.9176 13.6823 15 13.8 15H20V11.3999L13.8 11.3999ZM4 7.25622V17.6C4 18.1539 4.446 18.6 5 18.6H19C19.554 18.6 20 18.1539 20 17.6V15.8H13.8C13.2529 15.8 12.8 15.347 12.8 14.8V11.6C12.8 11.0529 13.2529 10.6001 13.8 10.6001H20V8.79998C20 8.24596 19.554 7.79998 19 7.79998L5.0125 7.78753C4.61174 7.7398 4.25452 7.54559 4 7.25628V7.25622ZM5.2 5.40002C4.74988 5.40002 4.4 5.74975 4.4 6.19989C4.4 6.65009 4.74988 7 5.2 7H17.6V5.40002H5.2Z" fill="white"/>
</svg>
